<svg xmlns="http://www.w3.org/2000/svg" viewBox="0 0 1200 900" width="1200" height="900" role="presentation" aria-hidden="true"><rect width="1200" height="900" fill="#f4efeb"/><rect x="117" y="80" width="6" height="740" fill="#160f0c" opacity="0.9"/><rect x="309" y="80" width="6" height="740" fill="#160f0c" opacity="0.9"/><rect x="501" y="80" width="6" height="740" fill="#160f0c" opacity="0.9"/><rect x="693" y="80" width="6" height="740" fill="#160f0c" opacity="0.9"/><rect x="885" y="80" width="6" height="740" fill="#160f0c" opacity="0.9"/><rect x="1077" y="80" width="6" height="740" fill="#160f0c" opacity="0.9"/><rect x="80" y="117" width="1040" height="6" fill="#160f0c" opacity="0.9"/><rect x="80" y="282" width="1040" height="6" fill="#160f0c" opacity="0.9"/><rect x="80" y="447" width="1040" height="6" fill="#160f0c" opacity="0.9"/><rect x="80" y="612" width="1040" height="6" fill="#160f0c" opacity="0.9"/><rect x="80" y="777" width="1040" height="6" fill="#160f0c" opacity="0.9"/><circle cx="120" cy="450" r="40" fill="#cd2f20"/><circle cx="504" cy="120" r="26" fill="#160f0c"/><circle cx="696" cy="120" r="26" fill="#160f0c"/><circle cx="888" cy="120" r="40" fill="#cd2f20"/><circle cx="888" cy="615" r="26" fill="#160f0c"/></svg>
