<svg xmlns="http://www.w3.org/2000/svg" viewBox="0 0 1200 900" width="1200" height="900" role="presentation" aria-hidden="true"><rect width="1200" height="900" fill="#fcfaf7"/><circle cx="600" cy="450" r="90" fill="none" stroke="#443d39" stroke-width="1.25" stroke-dasharray="7 6" opacity="0.5"/><path d="M553.79 527.23A90 90 0 0 1 556.87 371.01" fill="none" stroke="#160f0c" stroke-width="1.5" opacity="0.55"/><circle cx="600" cy="450" r="164" fill="none" stroke="#443d39" stroke-width="1.25" stroke-dasharray="7 6" opacity="0.5"/><path d="M480.68 562.52A164 164 0 0 1 686.54 310.69" fill="none" stroke="#160f0c" stroke-width="1.5" opacity="0.55"/><circle cx="600" cy="450" r="238" fill="none" stroke="#443d39" stroke-width="1.25" stroke-dasharray="7 6" opacity="0.5"/><path d="M809.09 336.31A238 238 0 1 1 374.54 526.23" fill="none" stroke="#160f0c" stroke-width="1.5" opacity="1"/><circle cx="600" cy="450" r="312" fill="none" stroke="#443d39" stroke-width="1.25" stroke-dasharray="7 6" opacity="0.5"/><path d="M733.87 168.18A312 312 0 0 1 611.9 761.77" fill="none" stroke="#160f0c" stroke-width="1.5" opacity="0.55"/><circle cx="600" cy="450" r="386" fill="none" stroke="#443d39" stroke-width="1.25" stroke-dasharray="7 6" opacity="0.5"/><path d="M966.38 571.49A386 386 0 0 1 302.75 696.25" fill="none" stroke="#160f0c" stroke-width="1.5" opacity="0.55"/><g stroke="#cd2f20" stroke-width="1.5" opacity="0.95"><path d="M554 450H646"/><path d="M600 404V496"/></g><path d="M1000 450L1026 450" stroke="#443d39" stroke-width="1.25" opacity="0.7"/><path d="M946.41 650L968.93 663" stroke="#443d39" stroke-width="1.25" opacity="0.7"/><path d="M800 796.41L813 818.93" stroke="#443d39" stroke-width="1.25" opacity="0.7"/><path d="M600 850L600 876" stroke="#443d39" stroke-width="1.25" opacity="0.7"/><path d="M400 796.41L387 818.93" stroke="#443d39" stroke-width="1.25" opacity="0.7"/><path d="M253.59 650L231.07 663" stroke="#443d39" stroke-width="1.25" opacity="0.7"/><path d="M200 450L174 450" stroke="#443d39" stroke-width="1.25" opacity="0.7"/><path d="M253.59 250L231.07 237" stroke="#443d39" stroke-width="1.25" opacity="0.7"/><path d="M400 103.59L387 81.07" stroke="#443d39" stroke-width="1.25" opacity="0.7"/><path d="M600 50L600 24" stroke="#443d39" stroke-width="1.25" opacity="0.7"/><path d="M800 103.59L813 81.07" stroke="#443d39" stroke-width="1.25" opacity="0.7"/><path d="M946.41 250L968.93 237" stroke="#443d39" stroke-width="1.25" opacity="0.7"/></svg>
